<svg width="23" height="21" viewBox="0 0 23 21" fill="none" xmlns="http://www.w3.org/2000/svg">
<path d="M18.8589 1.18801L22.1463 4.93293C22.9092 5.80202 22.9546 7.09744 22.2544 8.0191L13.3965 19.6796C12.439 20.9401 10.562 20.9401 9.60445 19.6796L0.74656 8.0191C0.0464191 7.09744 0.0918181 5.80202 0.854718 4.93293L4.14207 1.18801C4.59602 0.670877 5.24668 0.375 5.92996 0.375H9.37417H13.8926H17.071C17.7543 0.375 18.405 0.670877 18.8589 1.18801Z" fill="#FF7D83"/>
<path d="M13.8926 0.375H17.071C17.7543 0.375 18.405 0.670877 18.8589 1.18801L22.1463 4.93293C22.9092 5.80202 22.9546 7.09744 22.2544 8.0191L13.3965 19.6796C12.439 20.9401 10.562 20.9401 9.60445 19.6796L0.74656 8.0191C0.0464191 7.09744 0.0918181 5.80202 0.854718 4.93293L4.14207 1.18801C4.59602 0.670877 5.24668 0.375 5.92996 0.375H9.37417M13.8926 0.375L16.2847 6.43071M13.8926 0.375H9.37417M16.2847 6.43071H22.265M16.2847 6.43071L11.5005 20.3588L6.71627 6.43071M16.2847 6.43071H6.71627M9.37417 0.375L6.71627 6.43071M0.735997 6.43071H6.71627" stroke="white" stroke-width="0.225" stroke-linecap="round" stroke-linejoin="round"/>
</svg>
