<svg width="25" height="17" viewBox="0 0 25 17" fill="none" xmlns="http://www.w3.org/2000/svg">
<path d="M19.4286 13.3571C19.4286 15.369 16.1667 16.9999 12.1429 16.9999C8.1191 16.9999 4.85718 15.369 4.85718 13.3571C4.85718 11.3452 8.1191 9.71423 12.1429 9.71423C16.1667 9.71423 19.4286 11.3452 19.4286 13.3571Z" fill="#FF7D83"/>
<path d="M15.7857 3.64286C15.7857 5.65475 14.1548 7.28571 12.1429 7.28571C10.131 7.28571 8.5 5.65475 8.5 3.64286C8.5 1.63096 10.131 0 12.1429 0C14.1548 0 15.7857 1.63096 15.7857 3.64286Z" fill="#FF7D83"/>
<path fill-rule="evenodd" clip-rule="evenodd" d="M5.32058 9.73743C2.3217 9.92236 0 11.2007 0 12.7502C0 14.0275 1.57795 15.1207 3.81241 15.5688C3.3131 14.8927 3.03571 14.1444 3.03571 13.3573C3.03571 11.9689 3.89878 10.7014 5.32058 9.73743Z" fill="#FF7D83"/>
<path fill-rule="evenodd" clip-rule="evenodd" d="M20.4733 15.5688C20.9726 14.8927 21.25 14.1444 21.25 13.3573C21.25 11.9689 20.3869 10.7014 18.9651 9.73743C21.964 9.92236 24.2857 11.2007 24.2857 12.7502C24.2857 14.0275 22.7077 15.1207 20.4733 15.5688Z" fill="#FF7D83"/>
<path fill-rule="evenodd" clip-rule="evenodd" d="M16.658 6.72156C17.2569 5.84486 17.6072 4.78477 17.6072 3.64287C17.6072 3.26395 17.5686 2.89403 17.4952 2.53683C17.7224 2.46648 17.9639 2.42859 18.2143 2.42859C19.5556 2.42859 20.6429 3.5159 20.6429 4.85716C20.6429 6.19842 19.5556 7.28573 18.2143 7.28573C17.6221 7.28573 17.0794 7.07377 16.658 6.72156Z" fill="#FF7D83"/>
<path fill-rule="evenodd" clip-rule="evenodd" d="M6.79054 2.53683C6.56328 2.46648 6.32176 2.42859 6.07139 2.42859C4.73013 2.42859 3.64282 3.5159 3.64282 4.85716C3.64282 6.19842 4.73013 7.28573 6.07139 7.28573C6.6636 7.28573 7.20629 7.07377 7.62775 6.72156C7.0288 5.84486 6.67854 4.78477 6.67854 3.64287C6.67854 3.26395 6.71711 2.89403 6.79054 2.53683Z" fill="#FF7D83"/>
</svg>
