<svg width="20" height="21" viewBox="0 0 20 21" fill="none" xmlns="http://www.w3.org/2000/svg">
<path d="M18.5806 7.27831C19.0295 8.70693 19.1197 10.2241 18.8433 11.6958C18.6037 12.9312 18.1071 14.1024 17.3857 15.1335C16.6642 16.1646 15.7341 17.0325 14.6556 17.681C13.5771 18.3294 12.3744 18.7439 11.1254 18.8975C9.87637 19.0512 8.60902 18.9405 7.40554 18.5728C7.15868 18.4834 6.88829 18.4834 6.64143 18.5728L3.65663 20.113C3.5659 20.158 3.46409 20.1758 3.36347 20.1643C3.26284 20.1527 3.16769 20.1124 3.08947 20.048C3.01126 19.9837 2.9533 19.8981 2.9226 19.8016C2.89189 19.7051 2.88974 19.6018 2.9164 19.5041L3.54918 16.9491C3.58681 16.7795 3.58371 16.6035 3.54013 16.4354C3.49654 16.2673 3.41372 16.1119 3.29845 15.982C2.21928 14.7816 1.48417 13.3121 1.1707 11.7287C0.857229 10.1452 0.97703 8.50653 1.51746 6.98551C2.05789 5.46449 2.99889 4.11756 4.24118 3.08688C5.48346 2.0562 6.98094 1.37999 8.57558 1.12962C9.21398 1.01912 9.86259 0.979083 10.5097 1.01023" stroke="#141414" stroke-width="1.5" stroke-linecap="round" stroke-linejoin="round"/>
<path d="M15.3924 4.59201C16.3815 4.59201 17.1833 3.79021 17.1833 2.80113C17.1833 1.81206 16.3815 1.01025 15.3924 1.01025C14.4034 1.01025 13.6016 1.81206 13.6016 2.80113C13.6016 3.79021 14.4034 4.59201 15.3924 4.59201Z" stroke="#141414" stroke-width="1.5" stroke-linecap="round" stroke-linejoin="round"/>
<path d="M6.43848 9.95264V9.96264" stroke="#141414" stroke-width="2" stroke-linecap="round" stroke-linejoin="round"/>
<path d="M10.0205 9.95264V9.96264" stroke="#141414" stroke-width="2" stroke-linecap="round" stroke-linejoin="round"/>
<path d="M13.6016 9.95264V9.96264" stroke="#141414" stroke-width="2" stroke-linecap="round" stroke-linejoin="round"/>
</svg>
