<svg width="22" height="20" viewBox="0 0 22 20" fill="none" xmlns="http://www.w3.org/2000/svg">
<path d="M13.1263 1H15.9516C16.5589 1 17.1373 1.263 17.5408 1.72267L20.4629 5.05149C21.141 5.82402 21.1814 6.9755 20.559 7.79476L12.6854 18.1597C11.8342 19.2801 10.1658 19.2801 9.31463 18.1597L1.44095 7.79476C0.818605 6.9755 0.85896 5.82402 1.53709 5.05149L4.45918 1.72267C4.86269 1.263 5.44106 1 6.04842 1H9.10994M13.1263 1L15.2526 6.38285M13.1263 1H9.10994M15.2526 6.38285H20.5684M15.2526 6.38285L11 18.7634L6.74736 6.38285M15.2526 6.38285H6.74736M9.10994 1L6.74736 6.38285M1.43156 6.38285H6.74736" stroke="#28303F" stroke-width="1.5" stroke-linecap="round" stroke-linejoin="round"/>
</svg>
