<svg width="20" height="20" viewBox="0 0 20 20" fill="none" xmlns="http://www.w3.org/2000/svg">
<path fill-rule="evenodd" clip-rule="evenodd" d="M2.29163 5.00001C2.29163 3.50423 3.50419 2.29167 4.99996 2.29167H9.99996C10.3451 2.29167 10.625 2.01185 10.625 1.66667C10.625 1.32149 10.3451 1.04167 9.99996 1.04167H4.99996C2.81383 1.04167 1.04163 2.81388 1.04163 5.00001V15C1.04163 17.1861 2.81383 18.9583 4.99996 18.9583H15C17.1861 18.9583 18.9583 17.1861 18.9583 15V10C18.9583 9.65483 18.6785 9.375 18.3333 9.375C17.9881 9.375 17.7083 9.65483 17.7083 10V15C17.7083 16.4958 16.4957 17.7083 15 17.7083H4.99996C3.50419 17.7083 2.29163 16.4958 2.29163 15V5.00001ZM13.6825 2.23095C14.4348 1.47863 15.6546 1.47863 16.4069 2.23095L17.7691 3.59314C18.5214 4.34545 18.5214 5.5652 17.7691 6.31751L16.5613 7.52528C16.4665 7.47833 16.3668 7.42756 16.2633 7.37311C15.5672 7.00659 14.741 6.49218 14.1245 5.87562C13.5079 5.25906 12.9935 4.43292 12.627 3.73674C12.5725 3.63329 12.5217 3.53352 12.4748 3.4387L13.6825 2.23095ZM13.2406 6.75951C13.9702 7.48911 14.898 8.06333 15.6329 8.45372L10.8834 13.2032C10.5886 13.498 10.2062 13.6892 9.79362 13.7481L6.93302 14.1568C6.29733 14.2476 5.75246 13.7027 5.84327 13.067L6.25193 10.2064C6.31087 9.7938 6.50207 9.41142 6.7968 9.11668L11.5463 4.36715C11.9367 5.102 12.511 6.0299 13.2406 6.75951Z" fill="#FF7D83"/>
</svg>
