<?xml version="1.0" encoding="UTF-8" standalone="no"?>
<!DOCTYPE svg PUBLIC "-//W3C//DTD SVG 1.1//EN" "http://www.w3.org/Graphics/SVG/1.1/DTD/svg11.dtd">
<svg xmlns="http://www.w3.org/2000/svg" version="1.1" viewBox="0.00 0.00 40.00 44.00">
<path fill="#000000" d="
  M 39.50 33.88
  C 39.52 40.01 34.60 43.70 28.84 43.54
  Q 20.64 43.33 12.64 43.57
  Q 8.04 43.72 5.39 42.32
  C 2.07 40.59 0.44 36.96 0.47 33.28
  Q 0.52 25.39 0.51 18.10
  Q 0.51 14.12 3.74 11.25
  Q 8.77 6.78 14.18 2.55
  C 18.64 -0.94 23.60 0.30 27.63 3.91
  Q 31.41 7.31 35.25 10.19
  C 38.06 12.31 39.57 15.22 39.54 18.83
  Q 39.47 26.99 39.50 33.88
  Z
  M 28.22 29.30
  C 30.06 32.46 29.49 36.48 29.49 39.94
  A 0.60 0.60 0.0 0 0 30.14 40.54
  C 34.61 40.16 36.65 36.87 36.57 32.61
  Q 36.44 25.18 36.50 18.41
  Q 36.53 15.01 33.65 12.78
  Q 29.50 9.58 25.13 5.74
  C 22.05 3.03 18.58 2.61 15.26 5.44
  Q 10.77 9.27 5.98 13.09
  C 4.36 14.38 3.48 16.29 3.49 18.31
  Q 3.53 25.82 3.46 33.71
  C 3.43 37.35 5.95 40.01 9.58 40.52
  Q 10.58 40.66 10.54 39.66
  Q 10.41 36.49 10.57 33.34
  C 11.05 23.78 23.61 21.40 28.22 29.30
  Z
  M 13.86 40.50
  L 26.14 40.50
  A 0.38 0.38 0.0 0 0 26.52 40.12
  L 26.52 34.33
  A 6.81 6.33 -90.0 0 0 20.19 27.52
  L 19.81 27.52
  A 6.81 6.33 -90.0 0 0 13.48 34.33
  L 13.48 40.12
  A 0.38 0.38 0.0 0 0 13.86 40.50
  Z"
/>
</svg>
