<svg width="16" height="15" viewBox="0 0 16 15" fill="none" xmlns="http://www.w3.org/2000/svg">
<g clip-path="url(#clip0_34_5255)">
<path d="M13.7884 13.0633L12.5444 11.8758M7.2575 12.4695C8.03346 12.4695 8.80183 12.3236 9.51873 12.0401C10.2356 11.7567 10.887 11.3411 11.4357 10.8173C11.9844 10.2935 12.4196 9.67165 12.7166 8.98725C13.0135 8.30285 13.1664 7.56931 13.1664 6.82852C13.1664 6.08773 13.0135 5.3542 12.7166 4.6698C12.4196 3.9854 11.9844 3.36353 11.4357 2.83972C10.887 2.3159 10.2356 1.90039 9.51873 1.6169C8.80183 1.33341 8.03346 1.1875 7.2575 1.1875C5.69037 1.1875 4.18743 1.78182 3.0793 2.83972C1.97117 3.89761 1.34863 5.33243 1.34863 6.82852C1.34863 8.32461 1.97117 9.75943 3.0793 10.8173C4.18743 11.8752 5.69037 12.4695 7.2575 12.4695V12.4695Z" stroke="white" stroke-linecap="round" stroke-linejoin="round"/>
</g>
<defs>
<clipPath id="clip0_34_5255">
<rect width="14.9277" height="14.251" fill="white" transform="translate(0.104492)"/>
</clipPath>
</defs>
</svg>
